<svg width="26" height="26" viewBox="0 0 26 26" fill="none" xmlns="http://www.w3.org/2000/svg">
<path fill-rule="evenodd" clip-rule="evenodd" d="M4.0625 19.5C4.0625 19.2845 4.1481 19.0778 4.30048 18.9255C4.45285 18.7731 4.65951 18.6875 4.875 18.6875H21.125C21.3405 18.6875 21.5472 18.7731 21.6995 18.9255C21.8519 19.0778 21.9375 19.2845 21.9375 19.5C21.9375 19.7155 21.8519 19.9222 21.6995 20.0745C21.5472 20.2269 21.3405 20.3125 21.125 20.3125H4.875C4.65951 20.3125 4.45285 20.2269 4.30048 20.0745C4.1481 19.9222 4.0625 19.7155 4.0625 19.5ZM4.0625 13C4.0625 12.7845 4.1481 12.5778 4.30048 12.4255C4.45285 12.2731 4.65951 12.1875 4.875 12.1875H21.125C21.3405 12.1875 21.5472 12.2731 21.6995 12.4255C21.8519 12.5778 21.9375 12.7845 21.9375 13C21.9375 13.2155 21.8519 13.4222 21.6995 13.5745C21.5472 13.7269 21.3405 13.8125 21.125 13.8125H4.875C4.65951 13.8125 4.45285 13.7269 4.30048 13.5745C4.1481 13.4222 4.0625 13.2155 4.0625 13ZM4.0625 6.5C4.0625 6.28451 4.1481 6.07785 4.30048 5.92548C4.45285 5.7731 4.65951 5.6875 4.875 5.6875H21.125C21.3405 5.6875 21.5472 5.7731 21.6995 5.92548C21.8519 6.07785 21.9375 6.28451 21.9375 6.5C21.9375 6.71549 21.8519 6.92215 21.6995 7.07452C21.5472 7.2269 21.3405 7.3125 21.125 7.3125H4.875C4.65951 7.3125 4.45285 7.2269 4.30048 7.07452C4.1481 6.92215 4.0625 6.71549 4.0625 6.5Z" fill="black"/>
</svg>
