<svg width="46" height="40" viewBox="0 0 46 40" fill="none" xmlns="http://www.w3.org/2000/svg">
<path d="M31.1641 26.8359L27.9844 23.6563C29.0113 22.3456 29.5672 20.7275 29.5625 19.0625C29.5625 17.5791 29.1226 16.1291 28.2985 14.8957C27.4744 13.6624 26.3031 12.7011 24.9326 12.1334C23.5622 11.5657 22.0542 11.4172 20.5993 11.7066C19.1445 11.996 17.8081 12.7103 16.7592 13.7592C15.7103 14.8081 14.996 16.1445 14.7066 17.5993C14.4172 19.0542 14.5657 20.5622 15.1334 21.9326C15.7011 23.3031 16.6624 24.4744 17.8957 25.2985C19.1291 26.1226 20.5791 26.5625 22.0625 26.5625C23.7275 26.5672 25.3456 26.0113 26.6563 24.9844L29.8359 28.1641C30.0129 28.3387 30.2514 28.4366 30.5 28.4366C30.7486 28.4366 30.9872 28.3387 31.1641 28.1641C31.2515 28.077 31.3208 27.9735 31.3681 27.8595C31.4154 27.7456 31.4398 27.6234 31.4398 27.5C31.4398 27.3766 31.4154 27.2544 31.3681 27.1405C31.3208 27.0265 31.2515 26.923 31.1641 26.8359ZM16.4375 19.0625C16.4375 17.95 16.7674 16.8624 17.3855 15.9374C18.0036 15.0124 18.8821 14.2914 19.9099 13.8657C20.9377 13.4399 22.0687 13.3285 23.1599 13.5456C24.251 13.7626 25.2533 14.2984 26.04 15.085C26.8266 15.8717 27.3624 16.874 27.5794 17.9651C27.7965 19.0563 27.6851 20.1873 27.2593 21.2151C26.8336 22.2429 26.1126 23.1214 25.1876 23.7395C24.2626 24.3576 23.175 24.6875 22.0625 24.6875C20.5713 24.6854 19.1418 24.0921 18.0873 23.0377C17.0329 21.9833 16.4396 20.5537 16.4375 19.0625Z" fill="#585858"/>
</svg>
